# xmcd
#
# Track frame offsets:
#	150
#	16118
#	30598
#	43365
#	59108
#	71728
#	85048
#	97903
#	110680
#	123573
#	135268
#	148810
#	161720
#	176153
#
# Disc length: 2493
#
# Revision: 2
# Processed by: cddbd v1.5.1PL0 Copyright (c) Steve Scherf et al.
# Submitted via: CDex 1.51
# Normalized: r1:DSETVAR1,TDELIM( - )
#
DISCID=c809bb0e
DTITLE=Various Artist - Stars Of The Apollo   [CD1]
DYEAR=1972
DGENRE=Blues
TTITLE0=Gimme a Pigfoot - Bessie Smith w-Buck and His Band
TTITLE1=He's Long Gone from Bowling Green  (alternate take) - Buck and Bubbles and Their Buckets
TTITLE2=The Lure of the South - Mamie Smith
TTITLE3=I wanna Hot Dog for My Roll - Butterbeans and Susie
TTITLE4=Shake Your Ashes - Claude Hopkins and His Orchestra
TTITLE5=Sweet Sue, Just You - The Mills Brothers
TTITLE6=Fifteen Minute Intermission - Cab Calloway and His Orchestra
TTITLE7=Reefer Man - Baron Lee and The Blue Rhythm Band
TTITLE8=Harlem Woogie - Jimmy Johnson and His Orchestra
TTITLE9=Doin' the New Low Down - Bill ''Bojangles'' Robinson w-Don Redman and His Orchestra
TTITLE10=Rhythm Rhapsody - Earl Hines and His Orchestra
TTITLE11=Backwater Blues - Ruby Smith w-Jimmy Johnson and His Orchestra
TTITLE12=All My Life - Ella Fitzgerald w-Teddy Wilson and His Orchestra
TTITLE13=From Monday On - Ella Logan w-The Spirits of Rhythm
EXTD=Columbia YEAR: 1972
EXTT0=
EXTT1=
EXTT2=
EXTT3=
EXTT4=
EXTT5=
EXTT6=
EXTT7=
EXTT8=
EXTT9=
EXTT10=
EXTT11=
EXTT12=
EXTT13=
PLAYORDER=
